<?xml version="1.0" encoding="utf-8"?>
<svg width="100" height="50" viewBox="-1080 0 165.915 49.428" xmlns="http://www.w3.org/2000/svg" version="1.2" baseProfile="tiny">
  <g transform="matrix(1, 0, 0, 1, -563, -187)">
    <path fill="#000000" fill-rule="evenodd" d="M-430.5 231 L-451 230.125 L-454.75 228.75 L-455 226.5 L-453.5 225 L-450 224.375 L-448.5 224 L-447.5 225 L-446.5 224 L-442.5 224 L-441.5 225 L-440.5 224 L-431.5 224 L-428 227.5 L-428 228.5 L-430.5 231 "/>
    <path fill="#000000" fill-rule="evenodd" d="M-429.5 214 L-437 213.375 L-441 213.625 L-442.5 214 L-443.5 213 L-444.5 214 L-446 213.75 L-453.75 211.75 L-454 210.5 L-455 209.5 L-453.5 208 L-433.5 207 L-432.5 206 L-431.5 207 L-429.5 207 L-428 208.5 L-428 209.5 L-427 210.5 L-428 211.5 L-428 212.5 L-429.5 214 "/>
    <path fill="#000000" fill-rule="evenodd" d="M-380.25 233.75 L-382.75 233.75 L-383.125 232 L-384.75 191.25 L-382.5 191 L-381.5 190 L-380.5 191 L-379.5 190 L-368 189.625 L-365 190.5 L-362 191.625 L-360.5 192 L-359 193.5 L-358.875 207 L-359.25 208.75 L-366 213.375 L-368.5 214 L-369 214 L-368.5 215 L-366.5 216 L-357.5 223 L-356 224.5 L-355.75 225.75 L-354.5 226 L-353 227.5 L-353.25 230.875 L-358.5 231 L-362.5 227 L-363.75 226.75 L-364.25 225.25 L-365.5 225 L-370.5 220 L-372.5 220 L-374.5 218 L-375.5 218 L-377 216.5 L-377 214.5 L-378 213.5 L-377 212.5 L-377 211.5 L-375.5 210 L-366.5 208 L-363 204.5 L-364 197.5 L-365.5 196 L-367 195.625 L-370 194.5 L-374 194.5 L-377.75 195.25 L-379 198.5 L-378 199.5 L-379 200.5 L-379.875 232 L-380.25 233.75 "/>
    <path fill="#000000" fill-rule="evenodd" d="M-394.25 231.75 L-395.5 232 L-396.5 231 L-397.5 232 L-398.5 232 L-401 229.5 L-401.5 228 L-407.375 216 L-408 213.5 L-410 211.5 L-410.625 209 L-411.5 207 L-412 205.5 L-412 205 L-413 205.5 L-413 230.5 L-414.5 232 L-416.75 231.75 L-417.125 230 L-417 191.5 L-415.5 190 L-414.5 190 L-413 191.5 L-412.625 193 L-410.5 198 L-399.375 222 L-399 223.5 L-399 224 L-398 223.5 L-398 209.5 L-397 208.5 L-398 207.5 L-398 192.5 L-395.5 190 L-393.25 190.25 L-392 194.5 L-393 195.5 L-392 196.5 L-393.875 230 L-394.25 231.75 "/>
    <path fill="#000000" fill-rule="evenodd" d="M-433 197.375 L-455.75 195.75 L-455.75 192.25 L-454 191.875 L-439.5 191 L-438.5 190 L-437.5 191 L-436.5 190 L-435.5 191 L-434.5 190 L-431.5 191 L-429 193.5 L-429 195.5 L-430.5 197 L-433 197.375 "/>
    <path fill="#000000" fill-rule="evenodd" d="M-463.5 232 L-472 231.25 L-475 231.625 L-477 231.625 L-480.5 231 L-482 229.5 L-482 189.5 L-480.5 188 L-478.25 188.25 L-477.875 190 L-477 226 L-463.5 226 L-462 227.5 L-462 230.5 L-463.5 232 "/>
    <path fill="#000000" fill-rule="evenodd" d="M-511.5 231 L-513.75 230.75 L-514.125 229 L-514.125 211 L-514.625 208 L-514.5 206 L-514 204.5 L-515 203.5 L-514 202.5 L-514 199.5 L-515 198.5 L-514 197.5 L-514.25 195.25 L-516.75 194.75 L-517 192.5 L-514 189.5 L-514 188.5 L-512.5 187 L-510.25 187.25 L-509.75 188.75 L-508 188.5 L-506 187.75 L-500 187.625 L-497 188.5 L-494 189.625 L-492.5 190 L-491 191.5 L-488.75 196 L-488.75 204 L-490.25 207.75 L-494.5 209 L-496.5 211 L-498.5 211 L-499.5 212 L-500.5 211 L-501.5 212 L-509.75 211.25 L-510 212.5 L-509 213.5 L-510 214.5 L-510 217.5 L-509 218.5 L-510 219.5 L-510 221.5 L-509 222.5 L-510 223.5 L-510 226.5 L-509 227.5 L-510 228.5 L-510 229.5 L-511.5 231 M-499 205.375 L-497 204.625 L-494.5 204 L-493 202.5 L-492.5 201 L-492.5 199 L-493 197.5 L-496.5 194 L-498 193.5 L-500 192.5 L-501.5 192 L-502.5 193 L-503.5 192 L-507.5 193 L-510 195.5 L-510 196.5 L-509 197.5 L-510 198.5 L-509.875 204.75 L-503.5 206 L-502.5 205 L-501.5 206 L-499 205.375 "/>
  </g>
</svg>
